<svg width="429.00000000000006" height="96.70874661857529" viewBox="0 0 369.6666666666667 83.33333333333333" class="looka-1j8o68f"><defs id="SvgjsDefs1011"></defs><g id="SvgjsG1012" featurekey="JKiIdh-0" transform="matrix(0.9259259259259258,0,0,0.9259259259259258,-4.629629629629629,-4.629629629629629)" fill="#384259"><path xmlns="http://www.w3.org/2000/svg" d="M50,5C25.187,5,5,25.187,5,50c0,24.813,20.187,45,45,45c24.813,0,45-20.188,45-45C95,25.187,74.813,5,50,5z M50,91.17  C27.299,91.17,8.83,72.7,8.83,50c0-17.142,10.532-31.863,25.464-38.05c0.012,1.967,0.01,4.867-0.152,5.667  c-0.294,1.441-1.351,2.186-1.975,3.413c-0.223,0.438-0.213,1.137-0.438,1.519c-0.329,0.553-1.255,1.034-1.684,1.584  c-0.733,0.94-0.997,1.926-1.129,3.108c-0.333,2.945-0.784,5.632,0.669,8.327c1.423,2.639-0.221,5.935,2.146,8.007  c1.086,0.952,2.636,1.256,3.825,2.113c1.324,0.954,2.516,1.903,3.423,3.293c0.817,1.251,1.08,2.833,2.637,3.386  c1.832,0.65,3.165,0.9,2.583,3.234c-0.548,2.197-2.505,4.053-1.74,6.485c0.805,2.558,3.802,4.797,5.661,6.358  c1.985,1.67,2.723,3.078,2.851,5.654c0.125,2.533-0.328,10.166,2.932,11.15c1.746,0.525,7.986-5.032,9.296-6.061  c0.543-0.426,0.379-0.883,1.294-1.295c0.781-0.353,1.097-0.039,1.549-0.973c0.271-0.561-0.027-1.275,0.279-1.798  c0.437-0.733,1.481-0.879,2.271-1.104c1.458-0.416,2.427-0.953,2.929-2.455c0.436-1.306,0.442-2.295,1.436-3.426  c1.199-1.363,1.947-1.789,2.393-3.636c0.439-1.815,0.338-2.438-1.259-3.485c-1.356-0.889-2.019-0.973-3.67-1.033  c-1.542-0.06-2.601-0.851-4.094-0.988c-0.692-0.063-1.462,0.135-2.042-0.301c-0.967-0.723-0.357-1.307-0.668-2.209  c-0.479-1.391-1.688-2.191-2.936-2.57c-1.476-0.449-2.146-0.926-3.248-1.979c-1.127-1.078-2.395-1.746-3.943-1.976  c-0.646-0.095-1.334,0.052-1.983,0c-0.921-0.075-1.388-0.42-2.228-0.645c-1.871-0.501-2.165,1.197-3.525,1.359  c-0.327,0.04-3.625-1.548-3.824-1.875c-0.74-1.219,0.683-2.934-0.577-4.034c-0.438-0.379-1.32-0.118-1.711-0.716  c-0.255-0.387,0.002-1.709,0.009-2.276c0.008-0.587,0.192-1.5-0.241-1.922c-0.883-0.86-1.604,0.254-2.013,0.636  c-1.203,1.12-2.395,1.408-2.827-0.58c-0.7-3.22,1.225-4.804,3.959-5.204c1.055-0.155,3.347-0.279,4.062,0.576  c0.685,0.815-0.013,2.185,1.688,2.11c1.838-0.079,0.484-2.465,1.298-3.468c1.047-1.29,3.744-1.675,3.391-4.003  c0.226-1.606,1.114-1.816,2.544-2.259c1.406-0.436,2.492-1.425,3.805-1.849c1.053-0.339,3.295,0.71,3.92-0.541  c0.777-1.562-3.002-1.646-0.137-3.052c1.504-0.739,2.379-1.184,0.738-2.753c-1.063-1.014-1.902-2.076-3.075-2.962  c-0.809-0.612-2.374-1.947-3.567-1.306c-0.945,0.507-1.28,2.409-1.973,3.288c-1.777,2.259-2.381,0.204-3.415-1.404  c-1.801-2.803,1.386-1.679,3.002-2.291c0.92-0.346,1.234-0.944,1.268-1.943c0.045-1.438-0.396-1.646-1.654-2.128  c-1.339-0.513-2.167-1.036-2.821-1.816C48.392,8.86,49.192,8.83,50,8.83c22.701,0,41.17,18.469,41.17,41.17  C91.17,72.7,72.701,91.17,50,91.17z"></path></g><g id="SvgjsG1013" featurekey="A7DQL5-0" transform="matrix(3.004355469630818,0,0,3.004355469630818,103.0000587361213,5.261533496407727)" fill="#384259"><path d="M5.86 4.5 l-0.000019531 -0.26 l-5.86 0 l0 0.64 l3.38 0 l0 15.12 l0.7 0 l0 -15.12 l1.8 0 c-0.02666 -0.21334 -0.03332 -0.34 -0.01998 -0.38 z M6.38 4.24 l0 0.64 l1.1 0 l0 -0.64 l-1.1 0 z M10.74 16.06 l0 -11.82 l-0.66 0 l0 11.82 l0.66 0 z M16.12 20 l0 -0.68 l-5.38 0 l0 -1.96 l-0.66 0 l0 2.64 l6.04 0 z M24.06 6.140000000000001 c0 0.08 0.23666 0.84334 0.71 2.29 s0.99 3.03 1.55 4.75 s1.3133 3.9934 2.26 6.82 l0.86 0 l-5.3 -15.76 l-0.16 0 l-5.26 15.76 l0.82 0 z M23.7 15.52 l-0.72 0 l1.2 4.48 l0.72 0 z M38.54 18.66 l0.6 1.34 l0.84 0 l-0.6 -1.34 l-0.84 0 z M32.66 18.64 l-0.6 1.36 l0.8 0 l0.6 -1.34 l-0.42 0 z M34.08 5.460000000000001 l-0.52 -1.22 l-0.84 0 l0.54 1.24 l0.4 0 z M38.8 5.460000000000001 l0.52 -1.22 l-0.8 0 l-0.54 1.2 c0.12 0 0.26 0.0033398 0.42 0.01 s0.29334 0.01 0.4 0.01 z M42.58 4.24 l0 15.76 l0.52 0 l0 -15.76 l-0.52 0 z M52.63999999999999 19.96 l0.039942 -0.63998 c-1.96 -0.13334 -3.52 -0.94668 -4.68 -2.44 c-1.1067 -1.3867 -1.66 -3.06 -1.66 -5.02 c0 -1.0267 0.16666 -1.9167 0.5 -2.67 s0.83334 -1.4833 1.5 -2.19 c1.3333 -1.4 3 -2.1 5 -2.1 c1.2133 0 2.3066 0.26 3.28 0.78 s1.7667 1.2467 2.38 2.18 l0.48 -0.38 c-0.66666 -1.0133 -1.5333 -1.8067 -2.6 -2.38 c-1.0133 -0.54666 -2.16 -0.81332 -3.44 -0.79998 c-1.08 0 -2.0934 0.18334 -3.04 0.55 s-1.78 0.93 -2.5 1.69 c-0.72 0.77334 -1.2633 1.5733 -1.63 2.4 s-0.55 1.8 -0.55 2.92 c0.01334 2.12 0.62 3.9334 1.82 5.44 c1.28 1.6133 2.98 2.5 5.1 2.66 z M53.86 19.98002 c1.0933 -0.06666 2.0934 -0.32664 3 -0.77998 c1.04 -0.53334 1.9133 -1.2867 2.62 -2.26 l-0.46 -0.4 c-0.64 0.88 -1.4467 1.5733 -2.42 2.08 c-0.84 0.42666 -1.76 0.66666 -2.76 0.72 z M69.08 20 c2.2134 0 4.1 -0.78 5.66 -2.34 c0.77334 -0.76 1.3567 -1.58 1.75 -2.46 s0.59 -1.88 0.59 -3 c0 -2.2266 -0.78 -4.1066 -2.34 -5.64 c-1.56 -1.52 -3.4866 -2.2866 -5.78 -2.3 c-1.4133 0.01334 -2.74 0.36668 -3.98 1.06 c-1.2133 0.70666 -2.18 1.6867 -2.9 2.94 l0.58 0.32 c0.65334 -1.16 1.54 -2.06 2.66 -2.7 c1.1067 -0.64 2.32 -0.96666 3.64 -0.98 c2.1334 0.01334 3.9066 0.72668 5.32 2.14 c1.4133 1.3867 2.1266 3.1066 2.14 5.16 c0 1.0267 -0.18 1.9433 -0.54 2.75 s-0.88666 1.5633 -1.58 2.27 c-1.4267 1.4267 -3.1666 2.14 -5.22 2.14 c-1.28 0 -2.44 -0.27334 -3.48 -0.82 l-0.3 0.58 c1.1333 0.58666 2.3934 0.88 3.78 0.88 z M88.76 20 l0 -15.76 l-0.66 0 l-3.88 7.22 l-2.58 -4.8 l-0.58 0.32 l3.16 5.86 l3.9 -7.28 l0 14.44 l0.64 0 z M80.32000000000001 20 l0 -14.4 l0.16 0.3 l0.58 -0.3 l-0.74 -1.36 l-0.64 0 l0 15.76 l0.64 0 z"></path></g></svg>